<?xml version="1.0" encoding="utf-8"?>
<!-- Generator: Adobe Illustrator 12.0.0, SVG Export Plug-In . SVG Version: 6.00 Build 51448)  -->
<!DOCTYPE svg PUBLIC "-//W3C//DTD SVG 1.1//EN" "http://www.w3.org/Graphics/SVG/1.1/DTD/svg11.dtd" [
	<!ENTITY ns_svg "http://www.w3.org/2000/svg">
	<!ENTITY ns_xlink "http://www.w3.org/1999/xlink">
]>
<svg  version="1.1" id="Layer_1" xmlns="&ns_svg;" xmlns:xlink="&ns_xlink;" width="100.037" height="92.295"
	 viewBox="0 0 100.037 92.295" overflow="visible" enable-background="new 0 0 100.037 92.295" xml:space="preserve">
<g id="g4">
	<path id="path6" fill="#000000" stroke="rgb(250, 224, 224)" stroke-width="13" d="M86.506,11.953C81.415,7.681,76.456,6.493,69.87,6.5
		c-6.991,0.605-13.043,4.017-19.852,12.639C43.209,10.517,37.157,7.105,30.166,6.5c-6.585-0.007-11.545,1.181-16.636,5.453
		C10.239,14.714,6.5,22.049,6.5,29.038c0.087,14.063,9.893,35.202,42.127,54.861l1.331,0.809l0.061-0.035l0.061,0.035l1.331-0.809
		C83.645,64.24,93.449,43.101,93.537,29.038C93.537,22.049,89.797,14.714,86.506,11.953z"/>
</g>
</svg>
